<mxfile host="app.diagrams.net" modified="2024-06-15T14:10:01.849Z" agent="Mozilla/5.0 (Windows NT 10.0; Win64; x64) AppleWebKit/537.36 (KHTML, like Gecko) Chrome/125.0.0.0 Safari/537.36" etag="vAxH9ILDLYkRg5AWGsHi" version="24.5.4" type="github">
  <diagram id="BS59qYOegj_c470EKCzP" name="PÃ¡gina-2">
    <mxGraphModel dx="1233" dy="665" grid="0" gridSize="10" guides="1" tooltips="1" connect="1" arrows="1" fold="1" page="0" pageScale="1" pageWidth="827" pageHeight="1169" math="0" shadow="0">
      <root>
        <mxCell id="0" />
        <mxCell id="1" parent="0" />
        <mxCell id="eMQHsHicFexDhQco5dRS-1" value="Quetzaltenango" style="ellipse;whiteSpace=wrap;html=1;labelBackgroundColor=none;fillColor=#A8DADC;strokeColor=#457B9D;fontColor=#1D3557;" parent="1" vertex="1">
          <mxGeometry x="390" y="130" width="120" height="80" as="geometry" />
        </mxCell>
        <mxCell id="eMQHsHicFexDhQco5dRS-2" value="Totonicapan" style="ellipse;whiteSpace=wrap;html=1;labelBackgroundColor=none;fillColor=#A8DADC;strokeColor=#457B9D;fontColor=#1D3557;" parent="1" vertex="1">
          <mxGeometry x="120" y="280" width="120" height="80" as="geometry" />
        </mxCell>
        <mxCell id="eMQHsHicFexDhQco5dRS-3" value="Solola&lt;span style=&quot;color: rgba(0, 0, 0, 0); font-family: monospace; font-size: 0px; text-align: start; text-wrap: nowrap;&quot;&gt;%3CmxGraphModel%3E%3Croot%3E%3CmxCell%20id%3D%220%22%2F%3E%3CmxCell%20id%3D%221%22%20parent%3D%220%22%2F%3E%3CmxCell%20id%3D%222%22%20value%3D%22Totonicapan%22%20style%3D%22ellipse%3BwhiteSpace%3Dwrap%3Bhtml%3D1%3B%22%20vertex%3D%221%22%20parent%3D%221%22%3E%3CmxGeometry%20x%3D%22220%22%20y%3D%22280%22%20width%3D%22120%22%20height%3D%2280%22%20as%3D%22geometry%22%2F%3E%3C%2FmxCell%3E%3C%2Froot%3E%3C%2FmxGraphModel%3E&lt;/span&gt;" style="ellipse;whiteSpace=wrap;html=1;labelBackgroundColor=none;fillColor=#A8DADC;strokeColor=#457B9D;fontColor=#1D3557;" parent="1" vertex="1">
          <mxGeometry x="250" y="280" width="120" height="80" as="geometry" />
        </mxCell>
        <mxCell id="eMQHsHicFexDhQco5dRS-4" value="San Marcos" style="ellipse;whiteSpace=wrap;html=1;labelBackgroundColor=none;fillColor=#A8DADC;strokeColor=#457B9D;fontColor=#1D3557;" parent="1" vertex="1">
          <mxGeometry x="380" y="280" width="120" height="80" as="geometry" />
        </mxCell>
        <mxCell id="eMQHsHicFexDhQco5dRS-5" value="369" style="text;html=1;align=center;verticalAlign=middle;whiteSpace=wrap;rounded=0;labelBackgroundColor=none;fontColor=#1D3557;" parent="1" vertex="1">
          <mxGeometry x="510" y="155" width="60" height="30" as="geometry" />
        </mxCell>
        <mxCell id="eMQHsHicFexDhQco5dRS-6" value="347.7" style="text;html=1;align=center;verticalAlign=middle;whiteSpace=wrap;rounded=0;labelBackgroundColor=none;fontColor=#1D3557;" parent="1" vertex="1">
          <mxGeometry x="150" y="370" width="60" height="30" as="geometry" />
        </mxCell>
        <mxCell id="eMQHsHicFexDhQco5dRS-7" value="Suchitepequez" style="ellipse;whiteSpace=wrap;html=1;labelBackgroundColor=none;fillColor=#A8DADC;strokeColor=#457B9D;fontColor=#1D3557;" parent="1" vertex="1">
          <mxGeometry x="510" y="280" width="120" height="80" as="geometry" />
        </mxCell>
        <mxCell id="eMQHsHicFexDhQco5dRS-8" value="Huehuetenango" style="ellipse;whiteSpace=wrap;html=1;labelBackgroundColor=none;fillColor=#A8DADC;strokeColor=#457B9D;fontColor=#1D3557;" parent="1" vertex="1">
          <mxGeometry x="640" y="280" width="120" height="80" as="geometry" />
        </mxCell>
        <mxCell id="eMQHsHicFexDhQco5dRS-10" value="Retalhuleu" style="ellipse;whiteSpace=wrap;html=1;labelBackgroundColor=none;fillColor=#A8DADC;strokeColor=#457B9D;fontColor=#1D3557;" parent="1" vertex="1">
          <mxGeometry x="780" y="280" width="120" height="80" as="geometry" />
        </mxCell>
        <mxCell id="eMQHsHicFexDhQco5dRS-11" value="307" style="text;html=1;align=center;verticalAlign=middle;whiteSpace=wrap;rounded=0;labelBackgroundColor=none;fontColor=#1D3557;" parent="1" vertex="1">
          <mxGeometry x="280" y="370" width="60" height="30" as="geometry" />
        </mxCell>
        <mxCell id="eMQHsHicFexDhQco5dRS-12" value="361.9" style="text;html=1;align=center;verticalAlign=middle;whiteSpace=wrap;rounded=0;labelBackgroundColor=none;fontColor=#1D3557;" parent="1" vertex="1">
          <mxGeometry x="800" y="360" width="60" height="30" as="geometry" />
        </mxCell>
        <mxCell id="eMQHsHicFexDhQco5dRS-13" value="430" style="text;html=1;align=center;verticalAlign=middle;whiteSpace=wrap;rounded=0;labelBackgroundColor=none;fontColor=#1D3557;" parent="1" vertex="1">
          <mxGeometry x="670" y="370" width="60" height="30" as="geometry" />
        </mxCell>
        <mxCell id="eMQHsHicFexDhQco5dRS-14" value="330.4" style="text;html=1;align=center;verticalAlign=middle;whiteSpace=wrap;rounded=0;labelBackgroundColor=none;fontColor=#1D3557;" parent="1" vertex="1">
          <mxGeometry x="550" y="370" width="60" height="30" as="geometry" />
        </mxCell>
        <mxCell id="eMQHsHicFexDhQco5dRS-15" value="416.2" style="text;html=1;align=center;verticalAlign=middle;whiteSpace=wrap;rounded=0;labelBackgroundColor=none;fontColor=#1D3557;" parent="1" vertex="1">
          <mxGeometry x="414" y="370" width="60" height="30" as="geometry" />
        </mxCell>
        <mxCell id="eMQHsHicFexDhQco5dRS-16" style="edgeStyle=orthogonalEdgeStyle;rounded=0;orthogonalLoop=1;jettySize=auto;html=1;exitX=0.75;exitY=1;exitDx=0;exitDy=0;entryX=1;entryY=0.75;entryDx=0;entryDy=0;labelBackgroundColor=none;strokeColor=#457B9D;fontColor=default;" parent="1" source="eMQHsHicFexDhQco5dRS-13" target="eMQHsHicFexDhQco5dRS-13" edge="1">
          <mxGeometry relative="1" as="geometry" />
        </mxCell>
        <mxCell id="eMQHsHicFexDhQco5dRS-18" value="Chimaltenanago" style="ellipse;whiteSpace=wrap;html=1;labelBackgroundColor=none;fillColor=#A8DADC;strokeColor=#457B9D;fontColor=#1D3557;" parent="1" vertex="1">
          <mxGeometry x="170" y="500" width="120" height="80" as="geometry" />
        </mxCell>
        <mxCell id="eMQHsHicFexDhQco5dRS-19" value="Quiche&lt;span style=&quot;color: rgba(0, 0, 0, 0); font-family: monospace; font-size: 0px; text-align: start; text-wrap: nowrap;&quot;&gt;%3CmxGraphModel%3E%3Croot%3E%3CmxCell%20id%3D%220%22%2F%3E%3CmxCell%20id%3D%221%22%20parent%3D%220%22%2F%3E%3CmxCell%20id%3D%222%22%20value%3D%22Chimaltenanago%22%20style%3D%22ellipse%3BwhiteSpace%3Dwrap%3Bhtml%3D1%3B%22%20vertex%3D%221%22%20parent%3D%221%22%3E%3CmxGeometry%20x%3D%22170%22%20y%3D%22500%22%20width%3D%22120%22%20height%3D%2280%22%20as%3D%22geometry%22%2F%3E%3C%2FmxCell%3E%3C%2Froot%3E%3C%2FmxGraphModel%3E&lt;/span&gt;" style="ellipse;whiteSpace=wrap;html=1;labelBackgroundColor=none;fillColor=#A8DADC;strokeColor=#457B9D;fontColor=#1D3557;" parent="1" vertex="1">
          <mxGeometry x="300" y="500" width="120" height="80" as="geometry" />
        </mxCell>
        <mxCell id="eMQHsHicFexDhQco5dRS-21" value="245.9&lt;span style=&quot;white-space: pre;&quot;&gt;&#x9;&lt;/span&gt;" style="text;html=1;align=center;verticalAlign=middle;whiteSpace=wrap;rounded=0;labelBackgroundColor=none;fontColor=#1D3557;" parent="1" vertex="1">
          <mxGeometry x="200" y="585" width="60" height="30" as="geometry" />
        </mxCell>
        <mxCell id="eMQHsHicFexDhQco5dRS-22" value="306.3" style="text;html=1;align=center;verticalAlign=middle;whiteSpace=wrap;rounded=0;labelBackgroundColor=none;fontColor=#1D3557;" parent="1" vertex="1">
          <mxGeometry x="340" y="585" width="60" height="30" as="geometry" />
        </mxCell>
        <mxCell id="eMQHsHicFexDhQco5dRS-23" value="&lt;div&gt;Sacatepequez&lt;/div&gt;" style="ellipse;whiteSpace=wrap;html=1;labelBackgroundColor=none;fillColor=#A8DADC;strokeColor=#457B9D;fontColor=#1D3557;" parent="1" vertex="1">
          <mxGeometry x="80" y="640" width="120" height="80" as="geometry" />
        </mxCell>
        <mxCell id="eMQHsHicFexDhQco5dRS-24" value="Escuintla" style="ellipse;whiteSpace=wrap;html=1;labelBackgroundColor=none;fillColor=#A8DADC;strokeColor=#457B9D;fontColor=#1D3557;" parent="1" vertex="1">
          <mxGeometry x="210" y="640" width="120" height="80" as="geometry" />
        </mxCell>
        <mxCell id="eMQHsHicFexDhQco5dRS-25" value="Guatemala&lt;span style=&quot;color: rgba(0, 0, 0, 0); font-family: monospace; font-size: 0px; text-align: start; text-wrap: nowrap;&quot;&gt;%3CmxGraphModel%3E%3Croot%3E%3CmxCell%20id%3D%220%22%2F%3E%3CmxCell%20id%3D%221%22%20parent%3D%220%22%2F%3E%3CmxCell%20id%3D%222%22%20value%3D%22Escuintla%22%20style%3D%22ellipse%3BwhiteSpace%3Dwrap%3Bhtml%3D1%3B%22%20vertex%3D%221%22%20parent%3D%221%22%3E%3CmxGeometry%20x%3D%22210%22%20y%3D%22640%22%20width%3D%22120%22%20height%3D%2280%22%20as%3D%22geometry%22%2F%3E%3C%2FmxCell%3E%3C%2Froot%3E%3C%2FmxGraphModel%3E&lt;/span&gt;" style="ellipse;whiteSpace=wrap;html=1;labelBackgroundColor=none;fillColor=#A8DADC;strokeColor=#457B9D;fontColor=#1D3557;" parent="1" vertex="1">
          <mxGeometry x="340" y="640" width="120" height="80" as="geometry" />
        </mxCell>
        <mxCell id="eMQHsHicFexDhQco5dRS-26" value="Baja Verapaz" style="ellipse;whiteSpace=wrap;html=1;labelBackgroundColor=none;fillColor=#A8DADC;strokeColor=#457B9D;fontColor=#1D3557;" parent="1" vertex="1">
          <mxGeometry x="474" y="640" width="120" height="80" as="geometry" />
        </mxCell>
        <mxCell id="eMQHsHicFexDhQco5dRS-28" value="236.7" style="text;html=1;align=center;verticalAlign=middle;whiteSpace=wrap;rounded=0;labelBackgroundColor=none;fontColor=#1D3557;" parent="1" vertex="1">
          <mxGeometry x="240" y="720" width="60" height="30" as="geometry" />
        </mxCell>
        <mxCell id="eMQHsHicFexDhQco5dRS-29" value="170.6" style="text;html=1;align=center;verticalAlign=middle;whiteSpace=wrap;rounded=0;labelBackgroundColor=none;fontColor=#1D3557;" parent="1" vertex="1">
          <mxGeometry x="370" y="720" width="60" height="30" as="geometry" />
        </mxCell>
        <mxCell id="eMQHsHicFexDhQco5dRS-30" value="158.6" style="text;html=1;align=center;verticalAlign=middle;whiteSpace=wrap;rounded=0;labelBackgroundColor=none;fontColor=#1D3557;" parent="1" vertex="1">
          <mxGeometry x="504" y="720" width="60" height="30" as="geometry" />
        </mxCell>
        <mxCell id="eMQHsHicFexDhQco5dRS-31" value="233.4" style="text;html=1;align=center;verticalAlign=middle;whiteSpace=wrap;rounded=0;labelBackgroundColor=none;fontColor=#1D3557;" parent="1" vertex="1">
          <mxGeometry x="110" y="720" width="60" height="30" as="geometry" />
        </mxCell>
        <mxCell id="eMQHsHicFexDhQco5dRS-32" value="Guatemala&lt;span style=&quot;color: rgba(0, 0, 0, 0); font-family: monospace; font-size: 0px; text-align: start; text-wrap: nowrap;&quot;&gt;%3CmxGraphModel%3E%3Croot%3E%3CmxCell%20id%3D%220%22%2F%3E%3CmxCell%20id%3D%221%22%20parent%3D%220%22%2F%3E%3CmxCell%20id%3D%222%22%20value%3D%22Baja%20Verapaz%22%20style%3D%22ellipse%3BwhiteSpace%3Dwrap%3Bhtml%3D1%3B%22%20vertex%3D%221%22%20parent%3D%221%22%3E%3CmxGeometry%20x%3D%22474%22%20y%3D%22640%22%20width%3D%22120%22%20height%3D%2280%22%20as%3D%22geometry%22%2F%3E%3C%2FmxCell%3E%3C%2Froot%3E%3C%2FmxGraphModel%3E&lt;/span&gt;" style="ellipse;whiteSpace=wrap;html=1;labelBackgroundColor=none;fillColor=#A8DADC;strokeColor=#457B9D;fontColor=#1D3557;" parent="1" vertex="1">
          <mxGeometry x="400" y="800" width="120" height="80" as="geometry" />
        </mxCell>
        <mxCell id="eMQHsHicFexDhQco5dRS-33" value="El progreso&lt;span style=&quot;color: rgba(0, 0, 0, 0); font-family: monospace; font-size: 0px; text-align: start; text-wrap: nowrap;&quot;&gt;%3CmxGraphModel%3E%3Croot%3E%3CmxCell%20id%3D%220%22%2F%3E%3CmxCell%20id%3D%221%22%20parent%3D%220%22%2F%3E%3CmxCell%20id%3D%222%22%20value%3D%22Guatemala%26lt%3Bspan%20style%3D%26quot%3Bcolor%3A%20rgba(0%2C%200%2C%200%2C%200)%3B%20font-family%3A%20monospace%3B%20font-size%3A%200px%3B%20text-align%3A%20start%3B%20text-wrap%3A%20nowrap%3B%26quot%3B%26gt%3B%253CmxGraphModel%253E%253Croot%253E%253CmxCell%2520id%253D%25220%2522%252F%253E%253CmxCell%2520id%253D%25221%2522%2520parent%253D%25220%2522%252F%253E%253CmxCell%2520id%253D%25222%2522%2520value%253D%2522Baja%2520Verapaz%2522%2520style%253D%2522ellipse%253BwhiteSpace%253Dwrap%253Bhtml%253D1%253B%2522%2520vertex%253D%25221%2522%2520parent%253D%25221%2522%253E%253CmxGeometry%2520x%253D%2522474%2522%2520y%253D%2522640%2522%2520width%253D%2522120%2522%2520height%253D%252280%2522%2520as%253D%2522geometry%2522%252F%253E%253C%252FmxCell%253E%253C%252Froot%253E%253C%252FmxGraphModel%253E%26lt%3B%2Fspan%26gt%3B%22%20style%3D%22ellipse%3BwhiteSpace%3Dwrap%3Bhtml%3D1%3B%22%20vertex%3D%221%22%20parent%3D%221%22%3E%3CmxGeometry%20x%3D%22400%22%20y%3D%22800%22%20width%3D%22120%22%20height%3D%2280%22%20as%3D%22geometry%22%2F%3E%3C%2FmxCell%3E%3C%2Froot%3E%3C%2FmxGraphModel%3E&lt;/span&gt;" style="ellipse;whiteSpace=wrap;html=1;labelBackgroundColor=none;fillColor=#A8DADC;strokeColor=#457B9D;fontColor=#1D3557;" parent="1" vertex="1">
          <mxGeometry x="540" y="800" width="120" height="80" as="geometry" />
        </mxCell>
        <mxCell id="eMQHsHicFexDhQco5dRS-34" value="Alta Verapaz" style="ellipse;whiteSpace=wrap;html=1;labelBackgroundColor=none;fillColor=#A8DADC;strokeColor=#457B9D;fontColor=#1D3557;" parent="1" vertex="1">
          <mxGeometry x="670" y="800" width="120" height="80" as="geometry" />
        </mxCell>
        <mxCell id="eMQHsHicFexDhQco5dRS-35" value="170.6&lt;span style=&quot;color: rgba(0, 0, 0, 0); font-family: monospace; font-size: 0px; text-align: start; text-wrap: nowrap;&quot;&gt;%3CmxGraphModel%3E%3Croot%3E%3CmxCell%20id%3D%220%22%2F%3E%3CmxCell%20id%3D%221%22%20parent%3D%220%22%2F%3E%3CmxCell%20id%3D%222%22%20value%3D%22158.6%22%20style%3D%22text%3Bhtml%3D1%3Balign%3Dcenter%3BverticalAlign%3Dmiddle%3BwhiteSpace%3Dwrap%3Brounded%3D0%3B%22%20vertex%3D%221%22%20parent%3D%221%22%3E%3CmxGeometry%20x%3D%22504%22%20y%3D%22720%22%20width%3D%2260%22%20height%3D%2230%22%20as%3D%22geometry%22%2F%3E%3C%2FmxCell%3E%3C%2Froot%3E%3C%2FmxGraphModel%3E&lt;/span&gt;" style="text;html=1;align=center;verticalAlign=middle;whiteSpace=wrap;rounded=0;labelBackgroundColor=none;fontColor=#1D3557;" parent="1" vertex="1">
          <mxGeometry x="430" y="880" width="60" height="30" as="geometry" />
        </mxCell>
        <mxCell id="eMQHsHicFexDhQco5dRS-36" value="98.8&lt;span style=&quot;color: rgba(0, 0, 0, 0); font-family: monospace; font-size: 0px; text-align: start; text-wrap: nowrap;&quot;&gt;%3CmxGraphModel%3E%3Croot%3E%3CmxCell%20id%3D%220%22%2F%3E%3CmxCell%20id%3D%221%22%20parent%3D%220%22%2F%3E%3CmxCell%20id%3D%222%22%20value%3D%22158.6%22%20style%3D%22text%3Bhtml%3D1%3Balign%3Dcenter%3BverticalAlign%3Dmiddle%3BwhiteSpace%3Dwrap%3Brounded%3D0%3B%22%20vertex%3D%221%22%20parent%3D%221%22%3E%3CmxGeometry%20x%3D%22504%22%20y%3D%22720%22%20width%3D%2260%22%20height%3D%2230%22%20as%3D%22geometry%22%2F%3E%3C%2FmxCell%3E%3C%2Froot%3E%3C%2FmxGraphModel%3E&lt;/span&gt;" style="text;html=1;align=center;verticalAlign=middle;whiteSpace=wrap;rounded=0;labelBackgroundColor=none;fontColor=#1D3557;" parent="1" vertex="1">
          <mxGeometry x="570" y="880" width="60" height="30" as="geometry" />
        </mxCell>
        <mxCell id="eMQHsHicFexDhQco5dRS-37" value="245" style="text;html=1;align=center;verticalAlign=middle;whiteSpace=wrap;rounded=0;labelBackgroundColor=none;fontColor=#1D3557;" parent="1" vertex="1">
          <mxGeometry x="710" y="880" width="60" height="30" as="geometry" />
        </mxCell>
        <mxCell id="_4ohclU-_t_ccSOSz_IA-81" style="rounded=0;orthogonalLoop=1;jettySize=auto;html=1;exitX=0.5;exitY=1;exitDx=0;exitDy=0;entryX=0.5;entryY=0;entryDx=0;entryDy=0;labelBackgroundColor=none;strokeColor=#457B9D;fontColor=default;" edge="1" parent="1" source="_4ohclU-_t_ccSOSz_IA-1" target="_4ohclU-_t_ccSOSz_IA-20">
          <mxGeometry relative="1" as="geometry" />
        </mxCell>
        <mxCell id="_4ohclU-_t_ccSOSz_IA-83" style="rounded=0;orthogonalLoop=1;jettySize=auto;html=1;exitX=0.5;exitY=1;exitDx=0;exitDy=0;entryX=0.5;entryY=0;entryDx=0;entryDy=0;labelBackgroundColor=none;strokeColor=#457B9D;fontColor=default;" edge="1" parent="1" source="_4ohclU-_t_ccSOSz_IA-1" target="_4ohclU-_t_ccSOSz_IA-23">
          <mxGeometry relative="1" as="geometry" />
        </mxCell>
        <mxCell id="_4ohclU-_t_ccSOSz_IA-1" value="1" style="ellipse;whiteSpace=wrap;html=1;labelBackgroundColor=none;fillColor=#A8DADC;strokeColor=#457B9D;fontColor=#1D3557;" vertex="1" parent="1">
          <mxGeometry x="1440" y="90" width="70" height="50.11" as="geometry" />
        </mxCell>
        <mxCell id="_4ohclU-_t_ccSOSz_IA-5" value="8" style="text;html=1;align=center;verticalAlign=middle;whiteSpace=wrap;rounded=0;labelBackgroundColor=none;fontColor=#1D3557;" vertex="1" parent="1">
          <mxGeometry x="1490" y="105.16" width="60" height="30" as="geometry" />
        </mxCell>
        <mxCell id="_4ohclU-_t_ccSOSz_IA-16" value="(0,0)" style="text;html=1;align=center;verticalAlign=middle;whiteSpace=wrap;rounded=0;labelBackgroundColor=none;fontColor=#1D3557;" vertex="1" parent="1">
          <mxGeometry x="1390" y="105.16" width="60" height="30" as="geometry" />
        </mxCell>
        <mxCell id="_4ohclU-_t_ccSOSz_IA-84" style="rounded=0;orthogonalLoop=1;jettySize=auto;html=1;exitX=0.5;exitY=1;exitDx=0;exitDy=0;entryX=0.5;entryY=0;entryDx=0;entryDy=0;labelBackgroundColor=none;strokeColor=#457B9D;fontColor=default;" edge="1" parent="1" source="_4ohclU-_t_ccSOSz_IA-20" target="_4ohclU-_t_ccSOSz_IA-54">
          <mxGeometry relative="1" as="geometry" />
        </mxCell>
        <mxCell id="_4ohclU-_t_ccSOSz_IA-20" value="2" style="ellipse;whiteSpace=wrap;html=1;labelBackgroundColor=none;fillColor=#A8DADC;strokeColor=#457B9D;fontColor=#1D3557;" vertex="1" parent="1">
          <mxGeometry x="1230" y="215.05" width="70" height="50.11" as="geometry" />
        </mxCell>
        <mxCell id="_4ohclU-_t_ccSOSz_IA-21" value="7" style="text;html=1;align=center;verticalAlign=middle;whiteSpace=wrap;rounded=0;labelBackgroundColor=none;fontColor=#1D3557;" vertex="1" parent="1">
          <mxGeometry x="1280" y="230.21" width="60" height="30" as="geometry" />
        </mxCell>
        <mxCell id="_4ohclU-_t_ccSOSz_IA-22" value="(0,1)" style="text;html=1;align=center;verticalAlign=middle;whiteSpace=wrap;rounded=0;labelBackgroundColor=none;fontColor=#1D3557;" vertex="1" parent="1">
          <mxGeometry x="1180" y="230.21" width="60" height="30" as="geometry" />
        </mxCell>
        <mxCell id="_4ohclU-_t_ccSOSz_IA-85" style="rounded=0;orthogonalLoop=1;jettySize=auto;html=1;exitX=0.5;exitY=1;exitDx=0;exitDy=0;entryX=0.5;entryY=0;entryDx=0;entryDy=0;labelBackgroundColor=none;strokeColor=#457B9D;fontColor=default;" edge="1" parent="1" source="_4ohclU-_t_ccSOSz_IA-23" target="_4ohclU-_t_ccSOSz_IA-36">
          <mxGeometry relative="1" as="geometry" />
        </mxCell>
        <mxCell id="_4ohclU-_t_ccSOSz_IA-86" style="rounded=0;orthogonalLoop=1;jettySize=auto;html=1;exitX=0.5;exitY=1;exitDx=0;exitDy=0;entryX=0.5;entryY=0;entryDx=0;entryDy=0;labelBackgroundColor=none;strokeColor=#457B9D;fontColor=default;" edge="1" parent="1" source="_4ohclU-_t_ccSOSz_IA-23" target="_4ohclU-_t_ccSOSz_IA-39">
          <mxGeometry relative="1" as="geometry" />
        </mxCell>
        <mxCell id="_4ohclU-_t_ccSOSz_IA-87" style="rounded=0;orthogonalLoop=1;jettySize=auto;html=1;exitX=0.5;exitY=1;exitDx=0;exitDy=0;entryX=0.5;entryY=0;entryDx=0;entryDy=0;labelBackgroundColor=none;strokeColor=#457B9D;fontColor=default;" edge="1" parent="1" source="_4ohclU-_t_ccSOSz_IA-23" target="_4ohclU-_t_ccSOSz_IA-55">
          <mxGeometry relative="1" as="geometry" />
        </mxCell>
        <mxCell id="_4ohclU-_t_ccSOSz_IA-23" value="1" style="ellipse;whiteSpace=wrap;html=1;labelBackgroundColor=none;fillColor=#A8DADC;strokeColor=#457B9D;fontColor=#1D3557;" vertex="1" parent="1">
          <mxGeometry x="1650" y="220.15" width="70" height="50.11" as="geometry" />
        </mxCell>
        <mxCell id="_4ohclU-_t_ccSOSz_IA-24" value="6" style="text;html=1;align=center;verticalAlign=middle;whiteSpace=wrap;rounded=0;labelBackgroundColor=none;fontColor=#1D3557;" vertex="1" parent="1">
          <mxGeometry x="1700" y="235.31" width="60" height="30" as="geometry" />
        </mxCell>
        <mxCell id="_4ohclU-_t_ccSOSz_IA-25" value="(1,1)" style="text;html=1;align=center;verticalAlign=middle;whiteSpace=wrap;rounded=0;labelBackgroundColor=none;fontColor=#1D3557;" vertex="1" parent="1">
          <mxGeometry x="1600" y="235.31" width="60" height="30" as="geometry" />
        </mxCell>
        <mxCell id="_4ohclU-_t_ccSOSz_IA-36" value="5" style="ellipse;whiteSpace=wrap;html=1;labelBackgroundColor=none;fillColor=#A8DADC;strokeColor=#457B9D;fontColor=#1D3557;" vertex="1" parent="1">
          <mxGeometry x="1500" y="319.89" width="70" height="50.11" as="geometry" />
        </mxCell>
        <mxCell id="_4ohclU-_t_ccSOSz_IA-37" value="5" style="text;html=1;align=center;verticalAlign=middle;whiteSpace=wrap;rounded=0;labelBackgroundColor=none;fontColor=#1D3557;" vertex="1" parent="1">
          <mxGeometry x="1550" y="335.05" width="60" height="30" as="geometry" />
        </mxCell>
        <mxCell id="_4ohclU-_t_ccSOSz_IA-38" value="(1,2)" style="text;html=1;align=center;verticalAlign=middle;whiteSpace=wrap;rounded=0;labelBackgroundColor=none;fontColor=#1D3557;" vertex="1" parent="1">
          <mxGeometry x="1450" y="335.05" width="60" height="30" as="geometry" />
        </mxCell>
        <mxCell id="_4ohclU-_t_ccSOSz_IA-89" style="rounded=0;orthogonalLoop=1;jettySize=auto;html=1;exitX=0.5;exitY=1;exitDx=0;exitDy=0;entryX=0.5;entryY=0;entryDx=0;entryDy=0;labelBackgroundColor=none;strokeColor=#457B9D;fontColor=default;" edge="1" parent="1" source="_4ohclU-_t_ccSOSz_IA-39" target="_4ohclU-_t_ccSOSz_IA-64">
          <mxGeometry relative="1" as="geometry" />
        </mxCell>
        <mxCell id="_4ohclU-_t_ccSOSz_IA-90" style="rounded=0;orthogonalLoop=1;jettySize=auto;html=1;exitX=0.5;exitY=1;exitDx=0;exitDy=0;labelBackgroundColor=none;strokeColor=#457B9D;fontColor=default;" edge="1" parent="1" source="_4ohclU-_t_ccSOSz_IA-39" target="_4ohclU-_t_ccSOSz_IA-61">
          <mxGeometry relative="1" as="geometry" />
        </mxCell>
        <mxCell id="_4ohclU-_t_ccSOSz_IA-39" value="1" style="ellipse;whiteSpace=wrap;html=1;labelBackgroundColor=none;fillColor=#A8DADC;strokeColor=#457B9D;fontColor=#1D3557;" vertex="1" parent="1">
          <mxGeometry x="1660" y="314.94" width="70" height="50.11" as="geometry" />
        </mxCell>
        <mxCell id="_4ohclU-_t_ccSOSz_IA-40" value="4" style="text;html=1;align=center;verticalAlign=middle;whiteSpace=wrap;rounded=0;labelBackgroundColor=none;fontColor=#1D3557;" vertex="1" parent="1">
          <mxGeometry x="1710" y="330.1" width="60" height="30" as="geometry" />
        </mxCell>
        <mxCell id="_4ohclU-_t_ccSOSz_IA-41" value="(2,2)" style="text;html=1;align=center;verticalAlign=middle;whiteSpace=wrap;rounded=0;labelBackgroundColor=none;fontColor=#1D3557;" vertex="1" parent="1">
          <mxGeometry x="1610" y="330.1" width="60" height="30" as="geometry" />
        </mxCell>
        <mxCell id="_4ohclU-_t_ccSOSz_IA-48" value="1 + 8 = 9" style="text;whiteSpace=wrap;html=1;labelBackgroundColor=none;fontColor=#1D3557;" vertex="1" parent="1">
          <mxGeometry x="1510" y="125" width="80" height="40" as="geometry" />
        </mxCell>
        <mxCell id="_4ohclU-_t_ccSOSz_IA-49" value="" style="ellipse;whiteSpace=wrap;html=1;labelBackgroundColor=none;fillColor=#A8DADC;strokeColor=#457B9D;fontColor=#1D3557;" vertex="1" parent="1">
          <mxGeometry x="1150" y="317.41999999999996" width="70" height="50.11" as="geometry" />
        </mxCell>
        <mxCell id="_4ohclU-_t_ccSOSz_IA-51" value="(0,2)" style="text;html=1;align=center;verticalAlign=middle;whiteSpace=wrap;rounded=0;labelBackgroundColor=none;fontColor=#1D3557;" vertex="1" parent="1">
          <mxGeometry x="1155" y="330.09999999999997" width="60" height="30" as="geometry" />
        </mxCell>
        <mxCell id="_4ohclU-_t_ccSOSz_IA-52" value="" style="ellipse;whiteSpace=wrap;html=1;labelBackgroundColor=none;fillColor=#A8DADC;strokeColor=#457B9D;fontColor=#1D3557;" vertex="1" parent="1">
          <mxGeometry x="1310" y="312.46999999999997" width="70" height="50.11" as="geometry" />
        </mxCell>
        <mxCell id="_4ohclU-_t_ccSOSz_IA-54" value="1,2" style="text;html=1;align=center;verticalAlign=middle;whiteSpace=wrap;rounded=0;labelBackgroundColor=none;fontColor=#1D3557;" vertex="1" parent="1">
          <mxGeometry x="1320" y="317.42" width="60" height="30" as="geometry" />
        </mxCell>
        <mxCell id="_4ohclU-_t_ccSOSz_IA-55" value="" style="ellipse;whiteSpace=wrap;html=1;labelBackgroundColor=none;fillColor=#A8DADC;strokeColor=#457B9D;fontColor=#1D3557;" vertex="1" parent="1">
          <mxGeometry x="1820" y="314.94" width="70" height="50.11" as="geometry" />
        </mxCell>
        <mxCell id="_4ohclU-_t_ccSOSz_IA-57" value="(2,3)" style="text;html=1;align=center;verticalAlign=middle;whiteSpace=wrap;rounded=0;labelBackgroundColor=none;fontColor=#1D3557;" vertex="1" parent="1">
          <mxGeometry x="1830" y="327.63" width="60" height="30" as="geometry" />
        </mxCell>
        <mxCell id="_4ohclU-_t_ccSOSz_IA-58" value="" style="ellipse;whiteSpace=wrap;html=1;labelBackgroundColor=none;fillColor=#A8DADC;strokeColor=#457B9D;fontColor=#1D3557;" vertex="1" parent="1">
          <mxGeometry x="1500" y="474.95" width="70" height="50.11" as="geometry" />
        </mxCell>
        <mxCell id="_4ohclU-_t_ccSOSz_IA-60" value="(2,3)&lt;span style=&quot;color: rgba(0, 0, 0, 0); font-family: monospace; font-size: 0px; text-align: start; text-wrap: nowrap;&quot;&gt;%3CmxGraphModel%3E%3Croot%3E%3CmxCell%20id%3D%220%22%2F%3E%3CmxCell%20id%3D%221%22%20parent%3D%220%22%2F%3E%3CmxCell%20id%3D%222%22%20value%3D%221%22%20style%3D%22ellipse%3BwhiteSpace%3Dwrap%3Bhtml%3D1%3B%22%20vertex%3D%221%22%20parent%3D%221%22%3E%3CmxGeometry%20x%3D%221500%22%20y%3D%22319.89%22%20width%3D%2270%22%20height%3D%2250.11%22%20as%3D%22geometry%22%2F%3E%3C%2FmxCell%3E%3CmxCell%20id%3D%223%22%20value%3D%228%22%20style%3D%22text%3Bhtml%3D1%3Balign%3Dcenter%3BverticalAlign%3Dmiddle%3BwhiteSpace%3Dwrap%3Brounded%3D0%3B%22%20vertex%3D%221%22%20parent%3D%221%22%3E%3CmxGeometry%20x%3D%221550%22%20y%3D%22335.05%22%20width%3D%2260%22%20height%3D%2230%22%20as%3D%22geometry%22%2F%3E%3C%2FmxCell%3E%3CmxCell%20id%3D%224%22%20value%3D%22(1%2C2)%22%20style%3D%22text%3Bhtml%3D1%3Balign%3Dcenter%3BverticalAlign%3Dmiddle%3BwhiteSpace%3Dwrap%3Brounded%3D0%3B%22%20vertex%3D%221%22%20parent%3D%221%22%3E%3CmxGeometry%20x%3D%221450%22%20y%3D%22335.05%22%20width%3D%2260%22%20height%3D%2230%22%20as%3D%22geometry%22%2F%3E%3C%2FmxCell%3E%3CmxCell%20id%3D%225%22%20value%3D%221%22%20style%3D%22ellipse%3BwhiteSpace%3Dwrap%3Bhtml%3D1%3B%22%20vertex%3D%221%22%20parent%3D%221%22%3E%3CmxGeometry%20x%3D%221660%22%20y%3D%22314.94%22%20width%3D%2270%22%20height%3D%2250.11%22%20as%3D%22geometry%22%2F%3E%3C%2FmxCell%3E%3CmxCell%20id%3D%226%22%20value%3D%228%22%20style%3D%22text%3Bhtml%3D1%3Balign%3Dcenter%3BverticalAlign%3Dmiddle%3BwhiteSpace%3Dwrap%3Brounded%3D0%3B%22%20vertex%3D%221%22%20parent%3D%221%22%3E%3CmxGeometry%20x%3D%221710%22%20y%3D%22330.1%22%20width%3D%2260%22%20height%3D%2230%22%20as%3D%22geometry%22%2F%3E%3C%2FmxCell%3E%3CmxCell%20id%3D%227%22%20value%3D%22(2%2C2)%22%20style%3D%22text%3Bhtml%3D1%3Balign%3Dcenter%3BverticalAlign%3Dmiddle%3BwhiteSpace%3Dwrap%3Brounded%3D0%3B%22%20vertex%3D%221%22%20parent%3D%221%22%3E%3CmxGeometry%20x%3D%221610%22%20y%3D%22330.1%22%20width%3D%2260%22%20height%3D%2230%22%20as%3D%22geometry%22%2F%3E%3C%2FmxCell%3E%3CmxCell%20id%3D%228%22%20value%3D%221%22%20style%3D%22ellipse%3BwhiteSpace%3Dwrap%3Bhtml%3D1%3B%22%20vertex%3D%221%22%20parent%3D%221%22%3E%3CmxGeometry%20x%3D%221820%22%20y%3D%22314.94%22%20width%3D%2270%22%20height%3D%2250.11%22%20as%3D%22geometry%22%2F%3E%3C%2FmxCell%3E%3CmxCell%20id%3D%229%22%20value%3D%22(2%2C3)%22%20style%3D%22text%3Bhtml%3D1%3Balign%3Dcenter%3BverticalAlign%3Dmiddle%3BwhiteSpace%3Dwrap%3Brounded%3D0%3B%22%20vertex%3D%221%22%20parent%3D%221%22%3E%3CmxGeometry%20x%3D%221770%22%20y%3D%22330.1%22%20width%3D%2260%22%20height%3D%2230%22%20as%3D%22geometry%22%2F%3E%3C%2FmxCell%3E%3C%2Froot%3E%3C%2FmxGraphModel%3E&lt;/span&gt;" style="text;html=1;align=center;verticalAlign=middle;whiteSpace=wrap;rounded=0;labelBackgroundColor=none;fontColor=#1D3557;" vertex="1" parent="1">
          <mxGeometry x="1505" y="485.16" width="60" height="30" as="geometry" />
        </mxCell>
        <mxCell id="_4ohclU-_t_ccSOSz_IA-91" style="rounded=0;orthogonalLoop=1;jettySize=auto;html=1;exitX=0.5;exitY=1;exitDx=0;exitDy=0;entryX=0.5;entryY=0;entryDx=0;entryDy=0;labelBackgroundColor=none;strokeColor=#457B9D;fontColor=default;" edge="1" parent="1" source="_4ohclU-_t_ccSOSz_IA-61" target="_4ohclU-_t_ccSOSz_IA-69">
          <mxGeometry relative="1" as="geometry" />
        </mxCell>
        <mxCell id="_4ohclU-_t_ccSOSz_IA-61" value="1" style="ellipse;whiteSpace=wrap;html=1;labelBackgroundColor=none;fillColor=#A8DADC;strokeColor=#457B9D;fontColor=#1D3557;" vertex="1" parent="1">
          <mxGeometry x="1660" y="470" width="70" height="50.11" as="geometry" />
        </mxCell>
        <mxCell id="_4ohclU-_t_ccSOSz_IA-62" value="2" style="text;html=1;align=center;verticalAlign=middle;whiteSpace=wrap;rounded=0;labelBackgroundColor=none;fontColor=#1D3557;" vertex="1" parent="1">
          <mxGeometry x="1710" y="485.16" width="60" height="30" as="geometry" />
        </mxCell>
        <mxCell id="_4ohclU-_t_ccSOSz_IA-63" value="(3,3)" style="text;html=1;align=center;verticalAlign=middle;whiteSpace=wrap;rounded=0;labelBackgroundColor=none;fontColor=#1D3557;" vertex="1" parent="1">
          <mxGeometry x="1610" y="485.16" width="60" height="30" as="geometry" />
        </mxCell>
        <mxCell id="_4ohclU-_t_ccSOSz_IA-64" value="" style="ellipse;whiteSpace=wrap;html=1;labelBackgroundColor=none;fillColor=#A8DADC;strokeColor=#457B9D;fontColor=#1D3557;" vertex="1" parent="1">
          <mxGeometry x="1820" y="470" width="70" height="50.11" as="geometry" />
        </mxCell>
        <mxCell id="_4ohclU-_t_ccSOSz_IA-65" value="(3,4)" style="text;html=1;align=center;verticalAlign=middle;whiteSpace=wrap;rounded=0;labelBackgroundColor=none;fontColor=#1D3557;" vertex="1" parent="1">
          <mxGeometry x="1825" y="480.05" width="60" height="30" as="geometry" />
        </mxCell>
        <mxCell id="_4ohclU-_t_ccSOSz_IA-69" value="1" style="ellipse;whiteSpace=wrap;html=1;labelBackgroundColor=none;fillColor=#A8DADC;strokeColor=#457B9D;fontColor=#1D3557;" vertex="1" parent="1">
          <mxGeometry x="1670" y="615" width="70" height="50.11" as="geometry" />
        </mxCell>
        <mxCell id="_4ohclU-_t_ccSOSz_IA-70" value="0" style="text;html=1;align=center;verticalAlign=middle;whiteSpace=wrap;rounded=0;labelBackgroundColor=none;fontColor=#1D3557;" vertex="1" parent="1">
          <mxGeometry x="1720" y="630.1600000000001" width="60" height="30" as="geometry" />
        </mxCell>
        <mxCell id="_4ohclU-_t_ccSOSz_IA-71" value="(4,4)" style="text;html=1;align=center;verticalAlign=middle;whiteSpace=wrap;rounded=0;labelBackgroundColor=none;fontColor=#1D3557;" vertex="1" parent="1">
          <mxGeometry x="1620" y="630.1600000000001" width="60" height="30" as="geometry" />
        </mxCell>
        <mxCell id="_4ohclU-_t_ccSOSz_IA-74" value="2 + 7 = 9" style="text;whiteSpace=wrap;html=1;labelBackgroundColor=none;fontColor=#1D3557;" vertex="1" parent="1">
          <mxGeometry x="1305" y="260.21" width="80" height="40" as="geometry" />
        </mxCell>
        <mxCell id="_4ohclU-_t_ccSOSz_IA-75" value="1 + 6 = 7" style="text;whiteSpace=wrap;html=1;labelBackgroundColor=none;fontColor=#1D3557;" vertex="1" parent="1">
          <mxGeometry x="1720" y="250" width="80" height="40" as="geometry" />
        </mxCell>
        <mxCell id="_4ohclU-_t_ccSOSz_IA-76" value="5 + 5 = 10" style="text;whiteSpace=wrap;html=1;labelBackgroundColor=none;fontColor=#1D3557;" vertex="1" parent="1">
          <mxGeometry x="1540" y="370" width="90" height="40" as="geometry" />
        </mxCell>
        <mxCell id="_4ohclU-_t_ccSOSz_IA-77" value="1 + 4 = 5" style="text;whiteSpace=wrap;html=1;labelBackgroundColor=none;fontColor=#1D3557;" vertex="1" parent="1">
          <mxGeometry x="1720" y="357.63" width="80" height="40" as="geometry" />
        </mxCell>
        <mxCell id="_4ohclU-_t_ccSOSz_IA-78" value="1 + 2= 3" style="text;whiteSpace=wrap;html=1;labelBackgroundColor=none;fontColor=#1D3557;" vertex="1" parent="1">
          <mxGeometry x="1710" y="525.06" width="80" height="40" as="geometry" />
        </mxCell>
        <mxCell id="_4ohclU-_t_ccSOSz_IA-80" value="1 + 0 = 0" style="text;whiteSpace=wrap;html=1;labelBackgroundColor=none;fontColor=#1D3557;" vertex="1" parent="1">
          <mxGeometry x="1730" y="660" width="80" height="40" as="geometry" />
        </mxCell>
        <mxCell id="_4ohclU-_t_ccSOSz_IA-82" style="rounded=0;orthogonalLoop=1;jettySize=auto;html=1;exitX=0.5;exitY=1;exitDx=0;exitDy=0;entryX=0.472;entryY=-0.454;entryDx=0;entryDy=0;entryPerimeter=0;labelBackgroundColor=none;strokeColor=#457B9D;fontColor=default;" edge="1" parent="1" source="_4ohclU-_t_ccSOSz_IA-20" target="_4ohclU-_t_ccSOSz_IA-51">
          <mxGeometry relative="1" as="geometry" />
        </mxCell>
        <mxCell id="_4ohclU-_t_ccSOSz_IA-88" style="rounded=0;orthogonalLoop=1;jettySize=auto;html=1;exitX=0.5;exitY=1;exitDx=0;exitDy=0;entryX=0.448;entryY=-0.294;entryDx=0;entryDy=0;entryPerimeter=0;labelBackgroundColor=none;strokeColor=#457B9D;fontColor=default;" edge="1" parent="1" source="_4ohclU-_t_ccSOSz_IA-39" target="_4ohclU-_t_ccSOSz_IA-60">
          <mxGeometry relative="1" as="geometry" />
        </mxCell>
      </root>
    </mxGraphModel>
  </diagram>
</mxfile>
